<svg id="svg" version="1.1" xmlns="http://www.w3.org/2000/svg" xmlns:xlink="http://www.w3.org/1999/xlink" width="400" height="400" viewBox="0, 0, 400,400"><g id="svgg"><path id="path0" d="M96.475 17.000 C 81.059 36.205,73.618 53.070,71.658 73.245 C 69.383 96.680,79.387 124.540,96.317 141.912 L 100.837 146.551 99.866 151.003 C 97.338 162.585,97.724 182.663,100.769 198.000 C 103.521 211.860,112.463 226.647,113.702 219.385 C 114.017 217.538,114.088 191.615,113.804 182.364 C 113.559 174.400,114.893 169.427,120.433 157.651 C 122.037 154.243,124.323 149.327,125.515 146.727 C 130.879 135.025,132.253 132.702,136.183 128.695 C 141.161 123.621,141.456 125.390,137.202 134.795 C 135.919 137.633,134.467 141.456,133.976 143.291 C 132.602 148.424,129.319 156.642,125.969 163.336 C 121.325 172.613,121.394 172.225,121.176 190.182 C 121.050 200.536,121.136 207.156,121.450 211.273 C 121.972 218.111,121.744 219.665,119.514 224.492 C 117.973 227.826,117.391 228.266,111.993 230.169 C 104.684 232.747,103.262 234.294,102.988 239.968 C 102.760 244.713,103.385 248.260,104.800 250.261 C 106.208 252.249,110.944 257.091,111.482 257.091 C 111.707 257.091,112.557 257.574,113.371 258.163 C 115.597 259.776,119.828 261.809,128.614 265.491 C 144.372 272.093,148.584 274.789,152.742 280.937 C 156.302 286.200,163.392 293.112,167.091 294.926 C 169.495 296.105,171.947 296.779,180.364 298.576 L 186.000 299.779 206.249 299.722 L 226.499 299.666 230.613 297.613 C 238.668 293.592,241.199 291.493,249.548 281.904 C 255.620 274.931,259.097 272.617,269.091 268.895 C 284.721 263.073,293.625 256.390,296.699 248.173 C 299.521 240.633,297.460 237.600,286.216 232.742 C 277.240 228.864,276.150 225.167,278.736 207.367 C 280.798 193.178,281.293 191.446,282.875 192.879 C 284.048 193.939,284.186 194.949,285.454 211.678 C 286.232 221.949,288.800 223.865,294.481 218.417 C 301.092 212.075,302.474 203.187,303.245 162.060 L 303.530 146.847 306.989 143.332 C 336.887 112.949,341.461 66.202,318.006 30.727 C 314.212 24.989,307.487 15.906,306.044 14.573 L 305.091 13.691 305.091 15.518 C 305.091 16.522,305.359 20.846,305.686 25.127 C 308.474 61.581,302.752 87.427,287.786 105.975 L 285.329 109.019 280.028 104.085 C 258.914 84.429,244.526 78.268,214.364 75.965 C 200.754 74.926,166.923 79.011,156.999 82.891 C 144.194 87.897,128.923 98.518,125.242 104.977 C 122.348 110.056,119.949 109.974,115.728 104.654 C 100.640 85.636,95.734 58.926,99.494 16.273 C 99.773 13.107,99.559 13.158,96.475 17.000 M168.000 179.830 C 192.863 186.442,194.250 211.492,170.728 229.092 C 163.806 234.271,150.591 238.599,148.259 236.451 C 147.817 236.043,146.527 235.521,145.392 235.289 C 136.956 233.571,132.775 216.629,137.291 202.462 C 141.179 190.265,145.879 184.954,156.545 180.706 C 161.933 178.560,162.937 178.483,168.000 179.830 M244.599 180.180 C 254.769 183.567,260.996 190.868,263.829 202.727 C 268.596 222.687,265.785 229.902,250.586 236.724 C 244.620 239.401,244.868 239.402,239.664 236.712 C 228.805 231.099,222.651 224.593,216.509 212.233 C 212.260 203.683,212.182 202.492,215.456 196.001 C 218.909 189.152,221.550 186.977,233.273 181.322 C 239.089 178.516,239.482 178.477,244.599 180.180 M202.432 224.446 C 203.882 225.139,206.056 232.120,210.749 251.153 C 214.227 265.257,214.279 266.924,211.183 265.097 C 210.511 264.701,208.661 264.196,207.072 263.976 C 205.482 263.757,203.003 263.322,201.562 263.011 C 197.878 262.215,190.990 263.706,187.602 266.032 C 179.780 271.403,189.204 234.964,198.130 225.326 C 199.655 223.679,200.476 223.512,202.432 224.446 M133.797 288.964 C 133.541 289.638,133.649 293.602,134.156 302.146 C 134.554 308.866,135.051 318.301,135.260 323.112 C 136.067 341.724,137.536 346.102,146.095 355.394 C 147.747 357.188,149.997 359.858,151.095 361.328 C 152.193 362.798,153.989 365.202,155.087 366.672 C 157.388 369.751,161.689 374.440,166.374 378.977 L 169.636 382.135 179.091 383.401 C 184.291 384.097,189.364 384.762,190.364 384.878 C 191.364 384.994,194.309 384.931,196.909 384.736 C 199.509 384.542,206.955 384.208,213.455 383.994 C 227.117 383.545,228.985 383.316,232.597 381.647 C 240.202 378.134,246.814 371.591,256.619 357.881 C 263.625 348.082,265.234 343.730,266.725 330.545 C 267.053 327.645,267.978 321.427,268.781 316.727 C 272.919 292.504,272.906 292.112,268.018 292.592 C 254.106 293.956,250.212 299.211,245.257 323.307 C 240.931 344.349,237.030 348.919,218.727 354.392 C 208.068 357.579,185.941 354.782,173.722 348.703 C 161.761 342.752,158.670 337.275,156.912 318.915 C 155.949 308.861,154.430 304.275,150.145 298.496 C 144.862 291.370,135.056 285.652,133.797 288.964 M170.243 301.144 C 165.024 303.727,164.480 315.088,169.136 324.239 C 170.684 327.282,175.008 333.455,175.592 333.455 C 176.896 333.455,178.388 304.894,177.190 302.867 C 175.860 300.615,172.830 299.863,170.243 301.144 M224.278 302.154 L 223.091 303.217 223.111 311.881 C 223.123 316.646,223.263 323.775,223.424 327.723 L 223.715 334.900 225.403 333.038 C 233.408 324.210,236.520 314.417,234.009 305.960 C 232.752 301.728,227.187 299.551,224.278 302.154 M196.804 302.158 C 193.612 303.648,193.250 309.313,196.005 314.651 C 198.717 319.907,201.522 319.223,203.897 312.727 C 206.775 304.857,203.017 299.257,196.804 302.158 M184.608 302.568 C 180.290 303.300,180.801 311.876,185.502 317.579 L 186.634 318.953 187.465 318.172 C 188.741 316.973,190.890 312.419,191.255 310.140 C 192.101 304.859,189.381 301.759,184.608 302.568 M210.502 303.431 C 207.002 305.809,207.576 312.593,211.673 317.259 C 213.519 319.362,214.997 318.660,217.004 314.727 C 220.362 308.147,215.639 299.941,210.502 303.431 M179.493 332.800 C 177.441 335.931,175.939 346.350,177.267 348.245 C 178.525 350.041,184.192 350.246,185.312 348.537 C 185.940 347.578,185.867 346.924,184.663 342.727 C 182.510 335.225,180.470 331.309,179.493 332.800 M218.913 333.158 C 217.997 334.128,214.503 341.167,213.661 343.740 C 212.804 346.356,212.931 347.969,214.144 349.882 C 216.276 353.244,217.469 353.445,219.814 350.837 C 222.996 347.297,223.482 345.640,222.750 340.816 C 221.708 333.947,220.482 331.498,218.913 333.158 M191.304 337.347 C 186.139 343.597,188.686 355.521,194.437 352.015 C 197.723 350.011,197.706 343.577,194.399 338.098 C 192.970 335.730,192.695 335.663,191.304 337.347 M202.727 339.884 C 198.655 344.419,198.316 345.303,199.297 348.838 C 201.035 355.094,210.545 353.356,210.545 346.783 C 210.545 344.876,209.723 343.129,207.397 340.091 C 204.963 336.913,205.379 336.931,202.727 339.884 " stroke="none" fill="#fb041b" fill-rule="evenodd"></path></g></svg>